<?xml version="1.0" encoding="utf-8"?>
<!-- Generator: Adobe Illustrator 26.0.0, SVG Export Plug-In . SVG Version: 6.00 Build 0)  -->
<svg version="1.1" id="Capa_1" xmlns="http://www.w3.org/2000/svg" xmlns:xlink="http://www.w3.org/1999/xlink" x="0px" y="0px"
	 viewBox="0 0 640 512" style="enable-background:new 0 0 640 512;" xml:space="preserve">
<path d="M320.5,31.7c-80.8,0-145.5,36.8-192.6,80.6C81.1,155.7,49.8,207.7,35,243.4c-3.3,7.9-3.3,16.7,0,24.6
	c14.8,35.7,46.1,87.7,92.9,131.1c47.1,43.8,111.8,80.6,192.6,80.6s145.5-36.8,192.6-80.6c46.8-43.5,78.1-95.4,93-131.1
	c3.3-7.9,3.3-16.7,0-24.6c-14.9-35.7-46.2-87.7-93-131.1C466,68.5,401.2,31.7,320.5,31.7z M176.5,255.7c0-79.5,64.5-144,144-144
	s144,64.5,144,144s-64.5,144-144,144S176.5,335.2,176.5,255.7z M320.5,191.7c0,35.3-28.7,64-64,64c-7.1,0-13.9-1.2-20.3-3.3
	c-5.5-1.8-11.9,1.6-11.7,7.4c0.3,6.9,1.3,13.8,3.2,20.7c13.7,51.2,66.4,81.6,117.6,67.9s81.6-66.4,67.9-117.6
	c-11.1-41.5-47.8-69.4-88.6-71.1c-5.8-0.2-9.2,6.1-7.4,11.7C319.2,177.8,320.4,184.6,320.5,191.7L320.5,191.7z"/>
</svg>
