<svg id="Capa_1" data-name="Capa 1" xmlns="http://www.w3.org/2000/svg" viewBox="0 0 500 500"><defs><style>.cls-1{fill:#1d1d1b;}</style></defs><path class="cls-1" d="M250,0C111.93,0,0,111.93,0,250S111.93,500,250,500,500,388.07,500,250,388.07,0,250,0Zm0,475C125.74,475,25,374.26,25,250S125.74,25,250,25,475,125.74,475,250,374.26,475,250,475Z"/><path class="cls-1" d="M450,250c0,110.46-89.54,200-200,200V425A175,175,0,0,0,425,250Z"/><path class="cls-1" d="M250,50V75A175,175,0,0,0,75,250H50C50,139.54,139.54,50,250,50Z"/><path class="cls-1" d="M250,199.84a50,50,0,0,0-50,50V250a50,50,0,0,0,100,0v-.16A50,50,0,0,0,250,199.84Zm0,65A15,15,0,0,1,235,250v-.16a15,15,0,0,1,30,0V250A15,15,0,0,1,250,264.84Z"/><path class="cls-1" d="M400,250A150,150,0,0,1,250,399.84v-25A125,125,0,0,0,375,250Z"/><path class="cls-1" d="M350,250a100,100,0,0,1-100,99.84v-25A75,75,0,0,0,325,250Z"/><path class="cls-1" d="M250,99.84v25a125,125,0,0,0-125,125V250H100v-.16A150,150,0,0,1,250,99.84Z"/><path class="cls-1" d="M250,149.84v25a75,75,0,0,0-75,75V250H150v-.16A100,100,0,0,1,250,149.84Z"/></svg>