<?xml version="1.0" encoding="utf-8"?>
<!-- Generator: Adobe Illustrator 26.0.0, SVG Export Plug-In . SVG Version: 6.00 Build 0)  -->
<svg version="1.1" xmlns="http://www.w3.org/2000/svg" xmlns:xlink="http://www.w3.org/1999/xlink" x="0px" y="0px"
	 viewBox="0 0 475.9 500" style="enable-background:new 0 0 475.9 500;" xml:space="preserve">
<style type="text/css">
	.st0{fill:#D0D0D0;}
</style>
<g id="Capa_1">
	<path class="st0" d="M475.9,96.4c0-53.3-43.2-96.4-96.4-96.4c-36.1,0-67.6,19.8-84.1,49.2c-20.7-6.1-42.6-9.4-65.3-9.4
		C103,39.8,0,142.8,0,269.9S103,500,230.1,500s230.1-103,230.1-230.1c0-34.8-7.7-67.8-21.5-97.3C461.3,154.9,475.9,127.4,475.9,96.4
		z M331.2,86.8h38.6V48.2h19.3v38.6h38.6v19.3h-38.6v38.6h-19.3v-38.6h-38.6V86.8z M368.1,269.9c-0.1,76.2-61.8,137.9-138.1,137.9
		v-23c63.5,0,114.9-51.4,115-114.9H368.1z M299.1,269.9h23c-0.1,50.8-41.2,91.8-92,91.8v-23C268.2,338.8,299,307.9,299.1,269.9z
		 M46,269.9c0-101.7,82.4-184.1,184.1-184.1v23C141.2,108.9,69,181,69,269.9H46z M115,269.9H92v-0.2c0-76.2,61.8-138.1,138.1-138.1
		v23c-63.5,0-115,51.5-115,115V269.9z M161.1,269.7v0.2h-23v-0.2c0-50.8,41.2-92,92-92v23C192,200.7,161.1,231.6,161.1,269.7z
		 M184.1,269.9v-0.2c0-25.4,20.6-46,46-46s46,20.6,46,46v0.2c0,25.4-20.6,46-46,46S184.1,295.3,184.1,269.9z M230.1,454v-23
		c88.9,0,161.1-72.2,161.1-161.1h23C414.2,371.6,331.8,454,230.1,454z"/>
	<path class="st0" d="M243.9,269.7v0.2c-0.1,7.5-6.3,13.6-13.8,13.6c-7.5,0-13.7-6.1-13.8-13.6v-0.2c0-7.6,6.2-13.8,13.8-13.8
		C237.7,255.9,243.9,262.1,243.9,269.7z"/>
	<path class="st0" d="M379.5,0c-36.1,0-67.6,19.8-84.1,49.2c-7.9,14-12.3,30.1-12.3,47.2c0,53.3,43.2,96.4,96.4,96.4
		c22.3,0,42.8-7.6,59.2-20.3c22.7-17.6,37.3-45.2,37.3-76.1C475.9,43.2,432.7,0,379.5,0z M389.1,106.1v38.6h-19.3v-38.6h-38.6V86.8
		h38.6V48.2h19.3v38.6h38.6v19.3H389.1z"/>
</g>
<g id="Capa_2">
</g>
</svg>
