<?xml version="1.0" encoding="utf-8"?>
<!-- Generator: Adobe Illustrator 26.0.0, SVG Export Plug-In . SVG Version: 6.00 Build 0)  -->
<svg version="1.1" id="Capa_1" xmlns="http://www.w3.org/2000/svg" xmlns:xlink="http://www.w3.org/1999/xlink" x="0px" y="0px"
	 viewBox="0 0 500 500" style="enable-background:new 0 0 500 500;" xml:space="preserve">
<style type="text/css">
	.st0{fill:#1D1D1B;}
</style>
<path class="st0" d="M250,0C111.9,0,0,111.9,0,250s111.9,250,250,250s250-111.9,250-250S388.1,0,250,0z M250,475
	C125.7,475,25,374.3,25,250S125.7,25,250,25s225,100.7,225,225S374.3,475,250,475z"/>
<path class="st0" d="M450,250c0,110.5-89.5,200-200,200v-25c96.6,0,175-78.4,175-175H450z"/>
<path class="st0" d="M250,50v25c-96.6,0-175,78.4-175,175H50C50,139.5,139.5,50,250,50z"/>
<path class="st0" d="M250,199.8c-27.6,0-50,22.4-50,50l0,0v0.2c0,27.6,22.4,50,50,50s50-22.4,50-50v-0.2
	C300,222.2,277.6,199.8,250,199.8L250,199.8z M250,264.8c-8.2,0-14.9-6.6-15-14.8v-0.2c0-8.3,6.7-15,15-15s15,6.7,15,15v0.2
	C264.9,258.2,258.2,264.8,250,264.8z"/>
<path class="st0" d="M400,250c-0.1,82.8-67.2,149.8-150,149.8v-25c69,0,124.9-55.9,125-124.8H400z"/>
<path class="st0" d="M350,250c-0.1,55.2-44.8,99.8-100,99.8v-25c41.4,0,74.9-33.5,75-74.8H350z"/>
<path class="st0" d="M250,99.8v25c-69,0-125,56-125,125v0.2h-25v-0.2C100,167,167.2,99.8,250,99.8z"/>
<path class="st0" d="M250,149.8v25c-41.4,0-75,33.6-75,75v0.2h-25v-0.2C150,194.6,194.8,149.8,250,149.8z"/>
</svg>
