<?xml version="1.0" encoding="utf-8"?>
<!-- Generator: Adobe Illustrator 26.0.0, SVG Export Plug-In . SVG Version: 6.00 Build 0)  -->
<svg version="1.1" id="Capa_1" xmlns="http://www.w3.org/2000/svg" xmlns:xlink="http://www.w3.org/1999/xlink" x="0px" y="0px"
	 viewBox="0 0 500 500" style="enable-background:new 0 0 500 500;" xml:space="preserve">
<style type="text/css">
	.st0{fill:#FFFFFF;}
	.st1{fill:#1D1D1B;}
</style>
<rect class="st0" width="500" height="500"/>
<path class="st1" d="M250,39.4C133.7,39.4,39.4,133.7,39.4,250S133.7,460.6,250,460.6S460.6,366.3,460.6,250S366.3,39.4,250,39.4z
	 M250,439.5c-104.7,0-189.5-84.8-189.5-189.5S145.3,60.5,250,60.5S439.5,145.3,439.5,250S354.7,439.5,250,439.5z"/>
<path class="st1" d="M418.5,250c0,93.1-75.4,168.5-168.5,168.5v-21.1c81.4,0,147.4-66,147.4-147.4H418.5z"/>
<path class="st1" d="M250,81.5v21.1c-81.4,0-147.4,66-147.4,147.4H81.5C81.5,156.9,156.9,81.5,250,81.5z"/>
<path class="st1" d="M250,207.7c-23.3,0-42.1,18.9-42.1,42.1l0,0v0.2c0,23.3,18.9,42.1,42.1,42.1s42.1-18.9,42.1-42.1v-0.2
	C292.1,226.6,273.3,207.7,250,207.7L250,207.7z M250,262.5c-6.9,0-12.6-5.6-12.6-12.5v-0.2c0-7,5.6-12.6,12.6-12.6
	c7,0,12.6,5.6,12.6,12.6v0.2C262.6,256.9,256.9,262.5,250,262.5z"/>
<path class="st1" d="M376.4,250c-0.1,69.8-56.6,126.2-126.4,126.2v-21.1c58.1,0,105.2-47.1,105.3-105.1L376.4,250L376.4,250z"/>
<path class="st1" d="M334.2,250c-0.1,46.5-37.7,84.1-84.2,84.1V313c34.9,0,63.1-28.2,63.2-63L334.2,250L334.2,250z"/>
<path class="st1" d="M250,123.5v21.1c-58.1,0-105.3,47.2-105.3,105.3v0.2h-21.1v-0.2C123.6,180.1,180.2,123.5,250,123.5z"/>
<path class="st1" d="M250,165.6v21.1c-34.9,0-63.2,28.3-63.2,63.2v0.2h-21.1v-0.2C165.8,203.3,203.5,165.6,250,165.6z"/>
</svg>
