<?xml version="1.0" encoding="utf-8"?>
<!-- Generator: Adobe Illustrator 26.0.0, SVG Export Plug-In . SVG Version: 6.00 Build 0)  -->
<svg version="1.1" id="Capa_1" xmlns="http://www.w3.org/2000/svg" xmlns:xlink="http://www.w3.org/1999/xlink" x="0px" y="0px"
	 viewBox="0 0 1300 185" style="enable-background:new 0 0 1300 185;" xml:space="preserve">
<style type="text/css">
	.st0{fill:#D0D0D0;}
</style>
<g>
	<path class="st0" d="M160.9,30.3c2.6,2.8,3.9,6.1,3.9,9.7c0,0.6,0,1.1-0.1,1.5c-0.6,4.3-2.5,7.7-5.8,9.9l-0.2,0.2
		c-2.6,1.9-5.4,2.8-8.3,2.8c-0.6,0-1.1,0-1.7-0.1c-3.5-0.3-6.6-1.9-9.1-4.6C127,36.2,111.5,29.4,92.9,29.4
		C75.4,29.4,60.4,35.6,48,48C35.7,60.4,29.5,75.4,29.5,93c0,17.6,6.2,32.6,18.6,45c12.4,12.3,27.3,18.5,44.8,18.5
		c15.7,0,29.4-5.1,41.3-15.3c11.7-10.1,18.6-21.4,20.7-33.8h-59c-3.9,0-7.3-1.4-10.2-4.3c-2.8-2.8-4.1-6.1-4.1-10.1v-0.2
		c0-3.9,1.4-7.3,4.1-10.2c2.8-2.8,6.2-4.1,10.2-4.1h75.1c3.9,0,7.3,1.4,10.2,4.1c2.8,2.8,4.2,6.2,4.3,10.2V93
		c0,25.5-9,47.3-27.1,65.4c-18.1,18.1-39.9,27.1-65.4,27.1c-25.5,0-47.2-9-65.3-27.1C9.5,140.3,0.5,118.5,0.5,93
		c0-25.5,9-47.3,27.1-65.4C45.6,9.5,67.4,0.5,92.9,0.5C119.9,0.5,142.6,10.4,160.9,30.3z"/>
	<path class="st0" d="M265.5,49.1c3.9,0,7.3,1.4,10.2,4.3c2.8,2.8,4.1,6.2,4.1,10.2v0.2c0,3.9-1.4,7.3-4.1,10.1
		c-2.8,2.8-6.2,4.3-10.2,4.3h-6.7c-6.5,0-11.9,2.3-16.4,6.8c-4.4,4.5-6.7,10-6.7,16.5v69.9c0,4-1.4,7.4-4.3,10.1
		c-2.8,2.8-6.2,4.3-10.1,4.3h-0.4c-3.9,0-7.2-1.4-10.1-4.3c-2.8-2.7-4.3-6-4.3-10.1v-69.9c0.2-14.4,5.2-26.8,15.3-37
		c10.2-10.2,22.5-15.3,36.9-15.3H265.5z"/>
	<path class="st0" d="M357.4,49.1c18.8,0,34.8,6.7,48.1,20c13.3,13.3,20,29.4,20,48.2c0,18.8-6.7,34.9-20,48.2
		c-13.3,13.3-29.4,20-48.1,20c-18.8,0-34.8-6.7-48.1-20c-13.3-13.3-20-29.4-20-48.2c0-18.8,6.7-34.9,20-48.2
		C322.6,55.7,338.6,49.1,357.4,49.1z M357.4,78.3c-10.9,0-20.1,3.8-27.8,11.5c-7.6,7.7-11.4,16.9-11.4,27.8
		c0,10.8,3.8,20.1,11.4,27.7c7.6,7.7,16.9,11.5,27.8,11.5c10.8,0,20-3.8,27.7-11.5c7.6-7.7,11.5-16.9,11.5-27.7
		c0-10.9-3.8-20.2-11.5-27.8C377.4,82.1,368.2,78.3,357.4,78.3z"/>
	<path class="st0" d="M646.1,145.3l37.5-87.5c2.5-5.8,6.9-8.8,13.2-8.8h0.2c5.1,0,9.1,2.2,11.9,6.5c1.7,2.4,2.5,5,2.5,7.7
		c0,1.9-0.4,3.8-1.3,5.8l-43.9,102.7c-3.6,9.2-10.3,13.7-20.1,13.7c-9.9,0-16.7-4.6-20.2-13.7L582,69.1c-0.8-2-1.2-3.9-1.2-5.7
		c0-2.7,0.8-5.3,2.5-7.8c2.8-4.3,6.8-6.5,11.9-6.5h0.4c6.3,0,10.7,2.9,13.1,8.8c18.8,44.1,29.7,69.6,32.6,76.3
		C641.3,134.4,642.9,138.2,646.1,145.3z"/>
	<path class="st0" d="M852.2,88.9c0.9,2,1.4,4,1.4,6c0,1.7-0.3,3.3-0.9,5c-1.3,3.7-3.9,6.4-7.6,8.1c-11,5-25.5,11.5-43.5,19.7
		c-22.3,10.1-35.4,16.1-39.3,17.9c6,7.6,15.3,11.4,28,11.4c8.4,0,16.1-2.5,22.9-7.5c6.7-4.9,11.4-11.2,14.1-18.9
		c2.3-6.5,6.9-9.7,13.7-9.7c4.9,0,8.8,2.1,11.7,6.2c1.8,2.5,2.7,5.2,2.7,7.9c0,1.7-0.3,3.4-0.9,5.1c-4.7,13.5-12.8,24.4-24.5,32.7
		c-11.8,8.6-25.1,12.9-39.7,12.9c-18.8,0-34.8-6.7-48.1-20c-13.3-13.3-20-29.4-20-48.2c0-18.8,6.7-34.9,20-48.2
		c13.3-13.3,29.4-20,48.1-20c13.6,0,25.9,3.7,37.1,11.1C838.6,67.5,846.8,77,852.2,88.9z M790.3,78.3c-10.9,0-20.1,3.8-27.8,11.5
		c-7.6,7.7-11.4,16.9-11.4,27.8v0.8l66.1-29.7C811.5,81.8,802.5,78.3,790.3,78.3z"/>
	<path class="st0" d="M892.6,0.5c3.9,0,7.2,1.4,10.1,4.1c2.8,2.8,4.3,6.2,4.3,10.2v63.7h65.5V14.8c0-3.9,1.4-7.3,4.3-10.2
		c2.8-2.8,6.2-4.1,10.1-4.1h0.4c3.9,0,7.2,1.4,10.1,4.1c2.8,2.8,4.3,6.2,4.3,10.2v156.3c0,4-1.4,7.4-4.3,10.1
		c-2.8,2.8-6.2,4.3-10.1,4.3h-0.4c-3.9,0-7.2-1.4-10.1-4.3c-2.8-2.7-4.3-6-4.3-10.1v-63.7h-65.5v63.7c0,4-1.4,7.4-4.3,10.1
		c-2.8,2.8-6.2,4.3-10.1,4.3h-0.4c-3.9,0-7.2-1.4-10.1-4.3c-2.8-2.7-4.3-6-4.3-10.1V14.8c0-3.9,1.4-7.3,4.3-10.2
		c2.8-2.8,6.2-4.1,10.1-4.1H892.6z"/>
	<path class="st0" d="M1055.2,128.3c0,7.8,2.7,14.5,8.2,20c5.5,5.4,12.2,8.2,20.1,8.2c7.8,0,14.5-2.7,20-8.2
		c5.4-5.5,8.2-12.2,8.2-20V63.5c0-3.9,1.4-7.3,4.3-10.2c2.8-2.8,6.2-4.3,10.2-4.3h0.2c4,0,7.4,1.4,10.1,4.3
		c2.8,2.8,4.3,6.2,4.3,10.2v64.8c0,15.7-5.6,29.2-16.8,40.4c-11.2,11.2-24.6,16.8-40.3,16.8c-15.8,0-29.2-5.6-40.4-16.8
		c-11.2-11.2-16.8-24.7-16.8-40.4V63.5c0-3.9,1.4-7.3,4.3-10.2c2.8-2.8,6.2-4.3,10.1-4.3h0.4c3.9,0,7.2,1.4,10.1,4.3
		c2.8,2.8,4.3,6.2,4.3,10.2V128.3z"/>
	<path class="st0" d="M1178.9,0.5c3.9,0,7.2,1.4,10.1,4.1c2.8,2.8,4.3,6.2,4.3,10.2v46.1c8.9-7.9,22-11.8,39.1-11.8
		c18.8,0,34.8,6.7,48.1,20c13.3,13.3,20,29.4,20,48.2c0,18.8-6.7,34.9-20,48.2c-13.3,13.3-29.4,20-48.1,20c-18.8,0-34.8-6.6-48-19.9
		c-13.3-13.2-20-29.2-20.1-48V14.8c0-3.9,1.4-7.3,4.3-10.2c2.8-2.8,6.2-4.1,10.1-4.1H1178.9z M1232.4,78.3
		c-10.9,0-20.1,3.8-27.8,11.5c-7.6,7.7-11.4,16.9-11.4,27.8c0,10.8,3.8,20.1,11.4,27.7c7.6,7.7,16.9,11.5,27.8,11.5
		c10.8,0,20-3.8,27.7-11.5c7.6-7.7,11.5-16.9,11.5-27.7c0-10.9-3.8-20.2-11.5-27.8C1252.4,82.1,1243.2,78.3,1232.4,78.3z"/>
</g>
<path class="st0" d="M509,46.4c-38.3,0-69.4,31.1-69.4,69.5s31.1,69.5,69.4,69.5s69.4-31.1,69.4-69.5S547.3,46.4,509,46.4z
	 M509,178.4c-34.5,0-62.4-28-62.4-62.5s28-62.5,62.4-62.5s62.4,28,62.4,62.5S543.5,178.4,509,178.4z"/>
<path class="st0" d="M564.5,115.9c0,30.7-24.8,55.6-55.5,55.6v-6.9c26.8,0,48.6-21.8,48.6-48.6H564.5z"/>
<path class="st0" d="M509,60.3v6.9c-26.8,0-48.6,21.8-48.6,48.6h-6.9C453.5,85.2,478.4,60.3,509,60.3z"/>
<path class="st0" d="M509,101.9c-7.7,0-13.9,6.2-13.9,13.9l0,0v0c0,7.7,6.2,13.9,13.9,13.9c7.7,0,13.9-6.2,13.9-13.9v0
	C522.9,108.1,516.7,101.9,509,101.9L509,101.9z M509,120c-2.3,0-4.1-1.8-4.2-4.1v0c0-2.3,1.9-4.2,4.2-4.2s4.2,1.9,4.2,4.2v0
	C513.2,118.2,511.3,120,509,120z"/>
<path class="st0" d="M550.7,115.9c0,23-18.7,41.6-41.6,41.6v-6.9c19.1,0,34.7-15.5,34.7-34.7H550.7z"/>
<path class="st0" d="M536.8,115.9c0,15.3-12.4,27.7-27.8,27.7v-6.9c11.5,0,20.8-9.3,20.8-20.8H536.8z"/>
<path class="st0" d="M509,74.1v6.9c-19.2,0-34.7,15.6-34.7,34.7v0h-6.9v0C467.4,92.8,486,74.1,509,74.1z"/>
<path class="st0" d="M509,88V95c-11.5,0-20.8,9.3-20.8,20.8v0h-6.9v0C481.3,100.5,493.7,88,509,88z"/>
<g>
</g>
<g>
</g>
<g>
</g>
<g>
</g>
<g>
</g>
<g>
</g>
<g>
</g>
<g>
</g>
<g>
</g>
<g>
</g>
<g>
</g>
<g>
</g>
<g>
</g>
<g>
</g>
<g>
</g>
</svg>
